<?xml version="1.0" encoding="UTF-8" standalone="no" ?>
<!DOCTYPE svg PUBLIC "-//W3C//DTD SVG 1.1//EN" "http://www.w3.org/Graphics/SVG/1.1/DTD/svg11.dtd">
<svg width="51mm" xmlns="http://www.w3.org/2000/svg" height="56mm" version="1.1" viewBox="0 0 195 215" xmlns:xlink="http://www.w3.org/1999/xlink">
   <polyline fill="none" points="146,94 146,165" stroke="#0080ff" stroke-width="1"/>
   <polygon fill="#ffffff" points="146,94 150,104 146,113 141,104" stroke="#0080ff" stroke-width="1" stroke-linejoin="miter"/>
   <polyline fill="none" points="142,152 146,165 150,152" stroke="#0080ff" stroke-width="1"/>
   <text x="159" y="119" fill="#000000" font-size="10" font-family="'Arial Unicode MS','新宋体'" text-anchor="middle">0..1</text>
   <text x="131" y="146" fill="#000000" font-size="10" font-family="'Arial Unicode MS','新宋体'" text-anchor="middle">0..*</text>
   <polyline fill="none" points="34,94 34,163" stroke="#0080ff" stroke-width="1"/>
   <polygon fill="#ffffff" points="34,94 39,104 34,113 29,104" stroke="#0080ff" stroke-width="1" stroke-linejoin="miter"/>
   <polyline fill="none" points="30,150 34,163 38,150" stroke="#0080ff" stroke-width="1"/>
   <text x="48" y="119" fill="#000000" font-size="10" font-family="'Arial Unicode MS','新宋体'" text-anchor="middle">0..1</text>
   <text x="20" y="145" fill="#000000" font-size="10" font-family="'Arial Unicode MS','新宋体'" text-anchor="middle">0..*</text>
   <defs>
      <linearGradient id="Gradient1" x1="0%" x2="100%" y1="0%" y2="100%" gradientUnits="objectBoundingBox">
         <stop offset="5%" stop-color="#ffffff"/>
         <stop offset="95%" stop-color="#aee4ff"/>
      </linearGradient>
   </defs>
   <rect x="11" y="2" fill="url(#Gradient1)" width="182" height="92" stroke="#0080ff" stroke-width="1"/>
   <text x="102" y="12" fill="#000000" font-size="10" font-family="'Arial Unicode MS','新宋体'" text-anchor="middle">Teachers</text>
   <line x1="11" x2="193" y1="17" y2="17" stroke="#0080ff" stroke-width="1"/>
   <text x="15" y="27" fill="#000000" font-size="10" font-family="'Arial Unicode MS','新宋体'">-</text>
   <text x="15" y="38" fill="#000000" font-size="10" font-family="'Arial Unicode MS','新宋体'">-</text>
   <text x="15" y="49" fill="#000000" font-size="10" font-family="'Arial Unicode MS','新宋体'">-</text>
   <text x="15" y="60" fill="#000000" font-size="10" font-family="'Arial Unicode MS','新宋体'">-</text>
   <text x="28" y="27" fill="#000000" font-size="10" font-family="'Arial Unicode MS','新宋体'">tNumber</text>
   <text x="28" y="38" fill="#000000" font-size="10" font-family="'Arial Unicode MS','新宋体'">address</text>
   <text x="28" y="49" fill="#000000" font-size="10" font-family="'Arial Unicode MS','新宋体'">car</text>
   <text x="28" y="60" fill="#000000" font-size="10" font-family="'Arial Unicode MS','新宋体'">house</text>
   <text x="71" y="27" fill="#000000" font-size="10" font-family="'Arial Unicode MS','新宋体'">: int</text>
   <text x="71" y="38" fill="#000000" font-size="10" font-family="'Arial Unicode MS','新宋体'">: Address</text>
   <text x="71" y="49" fill="#000000" font-size="10" font-family="'Arial Unicode MS','新宋体'">: Car</text>
   <text x="71" y="60" fill="#000000" font-size="10" font-family="'Arial Unicode MS','新宋体'">: House</text>
   <line x1="11" x2="193" y1="65" y2="65" stroke="#0080ff" stroke-width="1"/>
   <text x="15" y="75" fill="#000000" font-size="10" font-family="'Arial Unicode MS','新宋体'">+</text>
   <text x="28" y="75" fill="#000000" font-size="10" font-family="'Arial Unicode MS','新宋体'">teach ()</text>
   <text x="76" y="75" fill="#000000" font-size="10" font-family="'Arial Unicode MS','新宋体'">: String</text>
   <defs>
      <linearGradient id="Gradient2" x1="0%" x2="100%" y1="0%" y2="100%" gradientUnits="objectBoundingBox">
         <stop offset="5%" stop-color="#ffffff"/>
         <stop offset="95%" stop-color="#aee4ff"/>
      </linearGradient>
   </defs>
   <rect x="114" y="165" fill="url(#Gradient2)" width="63" height="48" stroke="#0080ff" stroke-width="1"/>
   <text x="145" y="175" fill="#000000" font-size="10" font-family="'Arial Unicode MS','新宋体'" text-anchor="middle">Car</text>
   <line x1="114" x2="177" y1="180" y2="180" stroke="#0080ff" stroke-width="1"/>
   <line x1="114" x2="177" y1="195" y2="195" stroke="#0080ff" stroke-width="1"/>
   <defs>
      <linearGradient id="Gradient3" x1="0%" x2="100%" y1="0%" y2="100%" gradientUnits="objectBoundingBox">
         <stop offset="5%" stop-color="#ffffff"/>
         <stop offset="95%" stop-color="#aee4ff"/>
      </linearGradient>
   </defs>
   <rect x="2" y="163" fill="url(#Gradient3)" width="64" height="48" stroke="#0080ff" stroke-width="1"/>
   <text x="34" y="174" fill="#000000" font-size="10" font-family="'Arial Unicode MS','新宋体'" text-anchor="middle">House</text>
   <line x1="2" x2="66" y1="178" y2="178" stroke="#0080ff" stroke-width="1"/>
   <line x1="2" x2="66" y1="193" y2="193" stroke="#0080ff" stroke-width="1"/>
</svg>
