<?xml version="1.0" encoding="UTF-8" standalone="no" ?>
<!DOCTYPE svg PUBLIC "-//W3C//DTD SVG 1.1//EN" "http://www.w3.org/Graphics/SVG/1.1/DTD/svg11.dtd">
<svg width="96mm" xmlns="http://www.w3.org/2000/svg" height="47mm" version="1.1" viewBox="0 0 364 180" xmlns:xlink="http://www.w3.org/1999/xlink">
   <polyline fill="none" points="96,128 96,98 110,98 110,69" stroke="#8080ff" stroke-width="1" stroke-dasharray="3,3"/>
   <polygon fill="#ffffff" points="110,69 116,83 103,83" stroke="#8080ff" stroke-width="1" stroke-linejoin="miter"/>
   <polyline fill="none" points="281,130 281,69" stroke="#8080ff" stroke-width="1" stroke-dasharray="3,3"/>
   <polygon fill="#ffffff" points="281,69 288,83 275,83" stroke="#8080ff" stroke-width="1" stroke-linejoin="miter"/>
   <defs>
      <linearGradient id="Gradient1" x1="0%" x2="100%" y1="0%" y2="100%" gradientUnits="objectBoundingBox">
         <stop offset="5%" stop-color="#ffffff"/>
         <stop offset="95%" stop-color="#d0d0ff"/>
      </linearGradient>
   </defs>
   <rect x="84" y="2" fill="url(#Gradient1)" width="205" height="67" stroke="#8080ff" stroke-width="1"/>
   <image x="90" y="7" width="9" height="9" xlink:href="relization_svg_Files/svg_bitmap1.png"/>
   <text x="195" y="13" fill="#000000" font-size="10" font-family="'Arial Unicode MS','新宋体'" text-anchor="middle">IVehicle</text>
   <line x1="84" x2="289" y1="19" y2="19" stroke="#8080ff" stroke-width="1"/>
   <line x1="84" x2="289" y1="34" y2="34" stroke="#8080ff" stroke-width="1"/>
   <text x="89" y="44" fill="#000000" font-size="10" font-family="'Arial Unicode MS','新宋体'">+</text>
   <text x="102" y="44" fill="#000000" font-size="10" font-family="'Arial Unicode MS','新宋体'">travelSpeed ()</text>
   <text x="180" y="44" fill="#000000" font-size="10" font-family="'Arial Unicode MS','新宋体'">: int</text>
   <defs>
      <linearGradient id="Gradient2" x1="0%" x2="100%" y1="0%" y2="100%" gradientUnits="objectBoundingBox">
         <stop offset="5%" stop-color="#ffffff"/>
         <stop offset="95%" stop-color="#aee4ff"/>
      </linearGradient>
   </defs>
   <rect x="2" y="128" fill="url(#Gradient2)" width="125" height="48" stroke="#0080ff" stroke-width="1"/>
   <text x="64" y="138" fill="#000000" font-size="10" font-family="'Arial Unicode MS','新宋体'" text-anchor="middle">Train</text>
   <line x1="2" x2="127" y1="143" y2="143" stroke="#0080ff" stroke-width="1"/>
   <line x1="2" x2="127" y1="158" y2="158" stroke="#0080ff" stroke-width="1"/>
   <text x="7" y="168" fill="#000000" font-size="10" font-family="'Arial Unicode MS','新宋体'">+</text>
   <text x="20" y="168" fill="#000000" font-size="10" font-family="'Arial Unicode MS','新宋体'">travelSpeed ()</text>
   <text x="98" y="168" fill="#000000" font-size="10" font-family="'Arial Unicode MS','新宋体'">: int</text>
   <defs>
      <linearGradient id="Gradient3" x1="0%" x2="100%" y1="0%" y2="100%" gradientUnits="objectBoundingBox">
         <stop offset="5%" stop-color="#ffffff"/>
         <stop offset="95%" stop-color="#aee4ff"/>
      </linearGradient>
   </defs>
   <rect x="237" y="130" fill="url(#Gradient3)" width="125" height="48" stroke="#0080ff" stroke-width="1"/>
   <text x="299" y="140" fill="#000000" font-size="10" font-family="'Arial Unicode MS','新宋体'" text-anchor="middle">Bicycle</text>
   <line x1="237" x2="362" y1="145" y2="145" stroke="#0080ff" stroke-width="1"/>
   <line x1="237" x2="362" y1="160" y2="160" stroke="#0080ff" stroke-width="1"/>
   <text x="242" y="170" fill="#000000" font-size="10" font-family="'Arial Unicode MS','新宋体'">+</text>
   <text x="255" y="170" fill="#000000" font-size="10" font-family="'Arial Unicode MS','新宋体'">travelSpeed ()</text>
   <text x="333" y="170" fill="#000000" font-size="10" font-family="'Arial Unicode MS','新宋体'">: int</text>
</svg>
